#define 582077e90cbb42cc9da41febc6f4d904SaIgrC2EBNQ49Ib2_width 10
#define 582077e90cbb42cc9da41febc6f4d904SaIgrC2EBNQ49Ib2_height 10
static char 582077e90cbb42cc9da41febc6f4d904SaIgrC2EBNQ49Ib2_bits[] = {
  0x00, 0x01, 0x80, 0x03, 0x80, 0x03, 0xC0, 0x03, 0xC0, 0x03, 0xE0, 0x03, 
  0xF0, 0x01, 0xFC, 0x01, 0xFF, 0x00, 0x7E, 0x00, };
